<?xml version="1.0" encoding="iso-8859-1"?>
<!-- Generator: Adobe Illustrator 19.0.0, SVG Export Plug-In . SVG Version: 6.00 Build 0)  -->
<svg version="1.1" id="Capa_1" xmlns="http://www.w3.org/2000/svg" xmlns:xlink="http://www.w3.org/1999/xlink" x="0px" y="0px"
	 viewBox="0 0 512 512" style="enable-background:new 0 0 512 512;" xml:space="preserve">
<g>
	<g>
		<g>
			<path d="M460.8,443.733h-3.827l-53.922-256h6.908c7.719,0.008,15.008-3.556,19.742-9.654c4.916-6.241,6.668-14.404,4.746-22.113
				l-33.4-136.529C398.357,8.077,388.232,0.041,376.558,0H135.442c-11.673,0.041-21.797,8.075-24.487,19.433l-33.4,136.533
				c-1.922,7.708-0.17,15.872,4.746,22.113c4.734,6.098,12.022,9.662,19.742,9.654h6.907l-53.922,256H51.2
				c-9.422,0.009-17.057,7.645-17.067,17.067v34.133c0.009,9.422,7.645,17.057,17.067,17.067H128
				c0.416-0.051,0.828-0.134,1.231-0.248c1.267-0.039,2.483-0.51,3.445-1.336c0.371-0.185,0.727-0.397,1.066-0.637l91.425-83.113
				h61.667l91.425,83.113c0.426,0.323,0.883,0.604,1.365,0.838c0.381,0.282,0.785,0.53,1.209,0.742
				c1.004,0.414,2.078,0.631,3.164,0.64l0.002-0.001L384,512h76.8c9.422-0.009,17.057-7.645,17.067-17.067V460.8
				C477.857,451.378,470.222,443.743,460.8,443.733z M439.532,443.733h-33.759L387.799,358.4h33.759L439.532,443.733z
				 M417.964,341.333h-33.759l-32.353-153.6h33.759L417.964,341.333z M102.042,170.667c-2.476,0.002-4.811-1.152-6.312-3.121
				c-1.667-2.125-2.258-4.901-1.6-7.521l33.4-136.538c0.839-3.71,4.109-6.364,7.913-6.421h241.117
				c3.805,0.057,7.076,2.713,7.913,6.425l33.4,136.533c0.658,2.62,0.067,5.396-1.6,7.521c-1.502,1.969-3.836,3.123-6.312,3.121
				H102.042z M126.39,187.733h33.759l-32.353,153.6H94.036L126.39,187.733z M90.442,358.4h33.759l-17.974,85.333H72.468
				L90.442,358.4z M119.467,494.933H51.2V460.8h68.267V494.933z M375.467,484.177l-77.15-70.135
				c-3.14-2.861-7.236-4.445-11.483-4.442h-61.667c-4.248-0.003-8.343,1.581-11.483,4.442l-77.15,70.135v-28.136l86.188-78.354
				c1.571-1.431,3.621-2.223,5.746-2.221h55.067c2.123-0.003,4.171,0.788,5.742,2.217l86.192,78.358V484.177z M247.467,298.667
				h17.067V358.4h-17.067V298.667z M213.333,281.6c-4.71-0.006-8.527-3.823-8.533-8.533V256c0.006-4.71,3.823-8.527,8.533-8.533
				h85.333c4.71,0.006,8.527,3.823,8.533,8.533v17.067c-0.006,4.71-3.823,8.527-8.533,8.533h-25.6H213.333z M387.299,443.733
				l-86.545-78.679c-4.711-4.286-10.852-6.659-17.221-6.654H281.6v-59.733h17.067c14.132-0.015,25.585-11.468,25.6-25.6V256
				c-0.015-14.132-11.468-25.585-25.6-25.6h-85.333c-14.132,0.015-25.585,11.468-25.6,25.6v17.067
				c0.015,14.132,11.468,25.585,25.6,25.6H230.4V358.4h-1.933c-6.371-0.005-12.514,2.37-17.225,6.658l-86.541,78.675h-1.033
				l53.922-256H334.41l53.922,256H387.299z M460.8,494.933h-68.267V460.8H460.8V494.933z"/>
			<path d="M230.4,68.267c0-2.263-0.899-4.434-2.5-6.034c-1.6-1.601-3.77-2.5-6.033-2.5s-4.433,0.899-6.033,2.5l-8.704,8.704
				c-6.925-3.056-14.814-3.063-21.745-0.021l-8.684-8.684c-3.341-3.281-8.701-3.256-12.012,0.054s-3.335,8.671-0.054,12.012
				l8.595,8.595c-3.412,6.919-3.415,15.031-0.009,21.953l-8.585,8.586c-2.188,2.149-3.055,5.307-2.27,8.271s3.1,5.28,6.065,6.065
				c2.965,0.785,6.122-0.082,8.271-2.27l8.596-8.596c6.918,3.413,15.03,3.417,21.951,0.009l8.587,8.586
				c3.341,3.281,8.701,3.256,12.012-0.054s3.335-8.671,0.054-12.012l-8.595-8.595c3.412-6.919,3.415-15.031,0.01-21.954l8.585-8.585
				C229.5,72.701,230.4,70.53,230.4,68.267z M202.192,99.942c-1.609,1.577-3.781,2.448-6.034,2.419s-4.402-0.955-5.97-2.573
				c-1.59-1.557-2.476-3.695-2.454-5.921c-0.007-2.3,0.939-4.501,2.612-6.079c1.557-1.59,3.695-2.476,5.921-2.454
				c2.3-0.007,4.501,0.939,6.079,2.612c1.59,1.557,2.476,3.695,2.454,5.921C204.807,96.165,203.863,98.364,202.192,99.942z"/>
			<path d="M338.772,104.839c3.412-6.919,3.415-15.031,0.01-21.954l8.585-8.585c1.601-1.6,2.5-3.77,2.5-6.033
				c0-2.263-0.899-4.434-2.5-6.034c-1.6-1.601-3.77-2.5-6.033-2.5s-4.433,0.899-6.033,2.5l-8.704,8.704
				c-6.925-3.056-14.814-3.063-21.745-0.021l-8.684-8.684c-3.341-3.281-8.701-3.256-12.012,0.054S280.82,70.959,284.1,74.3
				l8.595,8.595c-3.412,6.919-3.415,15.031-0.009,21.953l-8.585,8.586c-2.188,2.149-3.055,5.307-2.27,8.271s3.1,5.28,6.065,6.065
				c2.965,0.785,6.122-0.082,8.271-2.27l8.596-8.596c6.918,3.413,15.03,3.417,21.951,0.009l8.587,8.586
				c2.149,2.188,5.307,3.055,8.271,2.27c2.965-0.785,5.28-3.1,6.065-6.065s-0.082-6.122-2.27-8.271L338.772,104.839z
				 M321.658,99.942c-1.609,1.577-3.781,2.448-6.034,2.419s-4.402-0.955-5.97-2.573c-1.59-1.557-2.476-3.695-2.454-5.921
				c-0.007-2.3,0.939-4.501,2.612-6.079c1.557-1.59,3.695-2.476,5.921-2.454c2.3-0.007,4.501,0.939,6.079,2.612
				c1.59,1.557,2.476,3.695,2.454,5.921C324.274,96.165,323.33,98.364,321.658,99.942z"/>
		</g>
	</g>
</g>
<g>
</g>
<g>
</g>
<g>
</g>
<g>
</g>
<g>
</g>
<g>
</g>
<g>
</g>
<g>
</g>
<g>
</g>
<g>
</g>
<g>
</g>
<g>
</g>
<g>
</g>
<g>
</g>
<g>
</g>
</svg>
