<?xml version="1.0" encoding="iso-8859-1"?>
<!-- Generator: Adobe Illustrator 19.0.0, SVG Export Plug-In . SVG Version: 6.00 Build 0)  -->
<svg version="1.1" id="Capa_1" xmlns="http://www.w3.org/2000/svg" xmlns:xlink="http://www.w3.org/1999/xlink" x="0px" y="0px"
	 viewBox="0 0 512 512" style="enable-background:new 0 0 512 512;" xml:space="preserve">
<g>
	<g>
		<path d="M467.174,270.31C454.613,165.155,381.638,64,256,64C130.375,64,57.402,165.133,44.829,270.277
			C15.176,284.354,0,301.081,0,320.094v42.667C0,418.125,131.896,448,256,448s256-29.875,256-85.24v-42.667
			C512,301.077,496.792,284.37,467.174,270.31z M69.414,251.71c47.723,16.352,114.609,25.717,186.586,25.717
			c50.875,0,99.813-4.646,141.563-13.438c5.75-1.219,9.438-6.875,8.229-12.635c-1.229-5.76-6.854-9.479-12.646-8.24
			c-40.292,8.49-87.729,12.979-137.146,12.979c-70.663,0-135.839-9.18-181.388-25.171c3.789-12.803,8.591-25.245,14.4-37.173
			c46.044,12.667,104.792,19.677,166.988,19.677c5.896,0,10.667-4.771,10.667-10.667c0-5.896-4.771-10.667-10.667-10.667
			c-58.159,0-112.987-6.243-156.469-17.574C131.361,122.725,184.049,85.333,256,85.333c42.841,0,78.73,13.427,107.619,35.059
			c-55.952,8.401-122.518,9.988-182.014,4.16c-5.688-0.469-11.083,3.708-11.667,9.573c-0.563,5.865,3.729,11.083,9.583,11.656
			c24.646,2.417,50.375,3.646,76.479,3.646c45.568,0,89.759-3.861,128.54-11c41.281,42.004,63.047,103.255,63.46,162.646
			c-9.604,10.844-87.271,40.26-192,40.26s-182.396-29.417-192-40.26C64.115,284.602,66.059,268.021,69.414,251.71z M490.667,362.76
			c0,26.688-89.271,63.906-234.667,63.906S21.333,389.448,21.333,362.76v-7.039C63.526,388.137,161.936,405.333,256,405.333
			s192.474-17.197,234.667-49.612V362.76z M256,384c-145.396,0-234.667-37.219-234.667-63.906c0-7.82,7.762-16.531,21.633-24.779
			c-0.069,2.484-0.299,4.977-0.299,7.456c0,31.698,119.292,59.896,213.333,59.896s213.333-28.198,213.333-59.896
			c0-2.493-0.232-5-0.301-7.499c13.926,8.259,21.634,16.962,21.634,24.822C490.667,346.781,401.396,384,256,384z"/>
	</g>
</g>
<g>
</g>
<g>
</g>
<g>
</g>
<g>
</g>
<g>
</g>
<g>
</g>
<g>
</g>
<g>
</g>
<g>
</g>
<g>
</g>
<g>
</g>
<g>
</g>
<g>
</g>
<g>
</g>
<g>
</g>
</svg>
