<?xml version="1.0" encoding="iso-8859-1"?>
<!-- Generator: Adobe Illustrator 19.0.0, SVG Export Plug-In . SVG Version: 6.00 Build 0)  -->
<svg version="1.1" id="Capa_1" xmlns="http://www.w3.org/2000/svg" xmlns:xlink="http://www.w3.org/1999/xlink" x="0px" y="0px"
	 viewBox="0 0 496 496" style="enable-background:new 0 0 496 496;" xml:space="preserve">
<g>
	<g>
		<g>
			<path d="M0,0v48h8v358.112l-8,16V496h64v-73.888l-8-16V48h416v192h16V48h8V0H0z M48,480H16v-54.112L20.944,416h22.112L48,425.888
				V480z M24,400V48h16v352H24z M480,32H16V16h464V32z"/>
			<rect x="440" y="64" width="16" height="176"/>
			<path d="M472,288v-16c0-8.824-7.176-16-16-16h-96c-8.824,0-16,7.176-16,16v16h-72v-16c0-8.824-7.176-16-16-16h-32
				c-8.824,0-16,7.176-16,16v16h-8c-13.232,0-24,10.768-24,24v160c0,13.232,10.768,24,24,24h64v-16h-64c-4.408,0-8-3.584-8-8V368
				h65.712c-6.16,12.016-9.712,25.592-9.712,40c0,48.52,39.48,88,88,88c48.52,0,88-39.48,88-88c0-14.408-3.552-27.984-9.712-40H480
				v104c0,4.416-3.592,8-8,8h-64v16h64c13.232,0,24-10.768,24-24V312C496,298.768,485.232,288,472,288z M224,272h32v16h-32V272z
				 M192,352v-40c0-4.416,3.592-8,8-8h72v43.792c-1.304,1.384-2.616,2.752-3.832,4.208H192z M336,480c-39.696,0-72-32.296-72-72
				c0-39.704,32.304-72,72-72s72,32.296,72,72C408,447.704,375.696,480,336,480z M416,352h-12.168
				c-16.16-19.528-40.568-32-67.832-32c-17.712,0-34.184,5.304-48,14.336V304h128V352z M448,352h-16v-48h16V352z M456,288h-96v-16
				h96V288z M480,352h-16v-48h8c4.408,0,8,3.584,8,8V352z"/>
			<path d="M336,384c-13.232,0-24,10.768-24,24s10.768,24,24,24s24-10.768,24-24S349.232,384,336,384z M336,416
				c-4.408,0-8-3.584-8-8c0-4.416,3.592-8,8-8c4.408,0,8,3.584,8,8C344,412.416,340.408,416,336,416z"/>
			<path d="M336,352c-30.88,0-56,25.128-56,56s25.12,56,56,56s56-25.128,56-56S366.88,352,336,352z M336,448
				c-22.056,0-40-17.944-40-40c0-22.056,17.944-40,40-40c22.056,0,40,17.944,40,40C376,430.056,358.056,448,336,448z"/>
			<rect x="208" y="320" width="16" height="16"/>
			<rect x="240" y="320" width="16" height="16"/>
			<rect x="432" y="448" width="32" height="16"/>
			<rect x="208" y="448" width="32" height="16"/>
			<rect x="208" y="416" width="32" height="16"/>
			<polygon points="96,64 80,64 80,480 160,480 160,464 96,464 			"/>
		</g>
	</g>
</g>
<g>
</g>
<g>
</g>
<g>
</g>
<g>
</g>
<g>
</g>
<g>
</g>
<g>
</g>
<g>
</g>
<g>
</g>
<g>
</g>
<g>
</g>
<g>
</g>
<g>
</g>
<g>
</g>
<g>
</g>
</svg>
