<?xml version="1.0" encoding="iso-8859-1"?>
<!-- Generator: Adobe Illustrator 19.0.0, SVG Export Plug-In . SVG Version: 6.00 Build 0)  -->
<svg version="1.1" id="Capa_1" xmlns="http://www.w3.org/2000/svg" xmlns:xlink="http://www.w3.org/1999/xlink" x="0px" y="0px"
	 viewBox="0 0 430.081 430.081" style="enable-background:new 0 0 430.081 430.081;" xml:space="preserve">
<g>
	<g>
		<path d="M311.192,354.987H101.152c-3.768,0-6.827,3.058-6.827,6.827c0,3.768,3.058,6.827,6.827,6.827h210.039
			c3.768,0,6.827-3.058,6.827-6.827C318.018,358.046,314.96,354.987,311.192,354.987z"/>
	</g>
</g>
<g>
	<g>
		<path d="M308.536,334.508H103.801c-3.768,0-6.827,3.058-6.827,6.827s3.058,6.827,6.827,6.827H308.54
			c3.768,0,6.823-3.058,6.823-6.827S312.305,334.508,308.536,334.508z"/>
	</g>
</g>
<g>
	<g>
		<path d="M344.748,238.934H113.679c0.089-22.91-0.256-67.949-3.56-109.763C105.535,71.09,86.758,7.554,85.963,4.878
			c-0.635-2.127-2.263-3.813-4.366-4.523c-2.103-0.707-4.42-0.348-6.212,0.963L53.99,16.986c-1.901,1.396-2.949,3.673-2.772,6.025
			c0.034,0.437,3.372,44.728,7.735,112.596c6.803,105.68,0.061,285.583-0.007,287.389c-0.068,1.853,0.618,3.656,1.905,4.994
			c1.287,1.338,3.065,2.092,4.919,2.092h27.307c3.519,0,6.461-2.673,6.796-6.178l11.824-123.529h233.052
			c3.768,0,6.827-3.058,6.827-6.827v-47.787C351.575,241.993,348.517,238.934,344.748,238.934z M337.922,286.721H105.491
			c-3.519,0-6.461,2.676-6.796,6.178L86.871,416.427H72.842c1.174-34.563,5.813-187.331-0.259-281.702
			c-3.645-56.627-6.574-96.87-7.468-108.964l10.394-7.608c5.407,19.941,17.544,68.294,21.002,112.09
			c3.635,46.005,3.642,96.068,3.475,115.459c-0.014,1.819,0.7,3.57,1.98,4.864c1.28,1.294,3.028,2.021,4.847,2.021h231.11V286.721z"
			/>
	</g>
</g>
<g>
	<g>
		<path d="M344.748,286.717H304.7c-1.935,0-3.779,0.823-5.072,2.26c-1.294,1.44-1.918,3.359-1.714,5.284l13.653,129.707
			c0.365,3.475,3.297,6.113,6.789,6.113h26.392c3.768,0,6.827-3.058,6.827-6.83V293.544
			C351.575,289.776,348.517,286.717,344.748,286.717z M337.922,416.427H324.5l-12.213-116.053h25.634V416.427z"/>
	</g>
</g>
<g>
	<g>
		<path d="M317.442,184.321H105.815c-3.768,0-6.827,3.058-6.827,6.827v54.613c0,3.768,3.058,6.827,6.827,6.827h266.24
			c3.768,0,6.827-3.058,6.827-6.827C378.882,211.883,351.319,184.321,317.442,184.321z M112.642,238.934v-40.96h204.8
			c24.03,0,43.977,17.835,47.299,40.96H112.642z"/>
	</g>
</g>
<g>
</g>
<g>
</g>
<g>
</g>
<g>
</g>
<g>
</g>
<g>
</g>
<g>
</g>
<g>
</g>
<g>
</g>
<g>
</g>
<g>
</g>
<g>
</g>
<g>
</g>
<g>
</g>
<g>
</g>
</svg>
