<?xml version="1.0" encoding="iso-8859-1"?>
<!-- Generator: Adobe Illustrator 19.0.0, SVG Export Plug-In . SVG Version: 6.00 Build 0)  -->
<svg version="1.1" id="Capa_1" xmlns="http://www.w3.org/2000/svg" xmlns:xlink="http://www.w3.org/1999/xlink" x="0px" y="0px"
	 viewBox="0 0 512 512" style="enable-background:new 0 0 512 512;" xml:space="preserve">
<g>
	<g>
		<g>
			<path d="M405.333,0H106.667C83.146,0,64,19.135,64,42.667v426.667C64,492.865,83.146,512,106.667,512h298.667
				C428.854,512,448,492.865,448,469.333V42.667C448,19.135,428.854,0,405.333,0z M426.667,469.333
				c0,11.76-9.563,21.333-21.333,21.333H106.667c-11.771,0-21.333-9.573-21.333-21.333V42.667c0-11.76,9.563-21.333,21.333-21.333
				h298.667c11.771,0,21.333,9.573,21.333,21.333V469.333z"/>
			<path d="M192,128c23.521,0,42.667-19.135,42.667-42.667S215.521,42.667,192,42.667s-42.667,19.135-42.667,42.667
				S168.479,128,192,128z M192,64c11.771,0,21.333,9.573,21.333,21.333c0,11.76-9.563,21.333-21.333,21.333
				s-21.333-9.573-21.333-21.333C170.667,73.573,180.229,64,192,64z"/>
			<path d="M258.396,154.865c-16.833-7.385-42.021-16.198-66.396-16.198s-49.563,8.813-66.396,16.198
				c-11.5,5.052-18.938,16.521-18.938,29.219v125.25c0,5.896,4.771,10.667,10.667,10.667h21.333v138.667
				c0,5.896,4.771,10.667,10.667,10.667h85.333c5.896,0,10.667-4.771,10.667-10.667V320h21.333c5.896,0,10.667-4.771,10.667-10.667
				v-125.25C277.333,171.385,269.896,159.917,258.396,154.865z M256,298.667h-21.333c-5.896,0-10.667,4.771-10.667,10.667V448h-64
				V309.333c0-5.896-4.771-10.667-10.667-10.667H128V184.083c0-4.229,2.438-8.031,6.188-9.677C146.438,169.021,170.229,160,192,160
				s45.563,9.021,57.813,14.406c3.75,1.646,6.188,5.448,6.188,9.677V298.667z"/>
			<path d="M359.542,173.792c-4.167-4.167-10.917-4.167-15.083,0l-42.667,42.667c-3.042,3.052-3.958,7.635-2.313,11.625
				c1.646,3.99,5.542,6.583,9.854,6.583h85.333c4.313,0,8.208-2.594,9.854-6.583c1.646-3.99,0.729-8.573-2.313-11.625
				L359.542,173.792z M335.083,213.333L352,196.417l16.917,16.917H335.083z"/>
			<path d="M394.667,277.333h-85.333c-4.313,0-8.208,2.594-9.854,6.583c-1.646,3.99-0.729,8.573,2.313,11.625l42.667,42.667
				c2.083,2.083,4.813,3.125,7.542,3.125c2.729,0,5.458-1.042,7.542-3.125l42.667-42.667c3.042-3.052,3.958-7.635,2.313-11.625
				C402.875,279.927,398.979,277.333,394.667,277.333z M352,315.583l-16.917-16.917h33.833L352,315.583z"/>
		</g>
	</g>
</g>
<g>
</g>
<g>
</g>
<g>
</g>
<g>
</g>
<g>
</g>
<g>
</g>
<g>
</g>
<g>
</g>
<g>
</g>
<g>
</g>
<g>
</g>
<g>
</g>
<g>
</g>
<g>
</g>
<g>
</g>
</svg>
