<?xml version="1.0" encoding="iso-8859-1"?>
<!-- Generator: Adobe Illustrator 19.0.0, SVG Export Plug-In . SVG Version: 6.00 Build 0)  -->
<svg version="1.1" id="Capa_1" xmlns="http://www.w3.org/2000/svg" xmlns:xlink="http://www.w3.org/1999/xlink" x="0px" y="0px"
	 viewBox="0 0 399.361 399.361" style="enable-background:new 0 0 399.361 399.361;" xml:space="preserve">
<g>
	<g>
		<path d="M245.583,4.456c-12.602-9.458-33.133-3.461-49.299,14.22c-0.502,0.331-0.963,0.737-1.372,1.219l-1.543,1.795
			c-2.458,2.86-2.13,7.168,0.73,9.626c2.857,2.454,7.168,2.127,9.626-0.734l0.454-0.526c0.44-0.311,0.85-0.672,1.219-1.096
			c12.261-14.019,26.146-17.971,31.993-13.585c5.83,4.372,5.885,18.777-4.192,34.417c-0.29,0.451-0.519,0.922-0.686,1.413
			l-1.57,2.382c-2.075,3.147-1.205,7.383,1.942,9.458c1.157,0.765,2.461,1.126,3.751,1.126c2.219,0,4.393-1.079,5.707-3.069
			l2.461-3.734c0.335-0.509,0.587-1.048,0.765-1.604C258.127,35.326,258.206,13.924,245.583,4.456z"/>
	</g>
</g>
<g>
	<g>
		<path d="M281.601,310.762c-22.586,0-40.96,18.347-40.96,40.895c0,3.768,3.058,6.827,6.827,6.827s6.827-3.058,6.827-6.827
			c0-15.022,12.25-27.242,27.307-27.242c15.056,0,27.307,12.22,27.307,27.242c0,3.768,3.058,6.827,6.827,6.827
			s6.827-3.058,6.827-6.827C322.561,329.108,304.187,310.762,281.601,310.762z"/>
	</g>
</g>
<g>
	<g>
		<path d="M173.275,171.259c-2.966-2.328-7.257-1.809-9.585,1.157c-7.83,9.977-19.596,15.701-32.276,15.701
			c-22.586,0-40.96-18.333-40.96-40.871c0-8.578,2.632-16.787,7.615-23.74c2.195-3.065,1.492-7.328-1.574-9.527
			c-3.065-2.195-7.328-1.488-9.527,1.574c-6.653,9.291-10.168,20.244-10.168,31.693c0,30.065,24.501,54.525,54.613,54.525
			c16.903,0,32.58-7.629,43.015-20.927C176.76,177.874,176.241,173.586,173.275,171.259z"/>
	</g>
</g>
<g>
	<g>
		<path d="M217.488,32.807c-6.007-4.506-12.418-8.352-19.053-11.431C170.592,8.46,141.477,10.06,123.266,25.26
			c-1.034,0.311-2.004,0.87-2.819,1.669L57.532,88.847c-1.403,1.382-2.144,3.304-2.028,5.27c0.116,1.966,1.075,3.785,2.632,4.994
			l138.073,106.974c1.208,0.932,2.683,1.43,4.181,1.43c0.464,0,0.928-0.048,1.386-0.143c1.959-0.406,3.635-1.645,4.598-3.4
			l43.735-79.695c0.56-1.01,0.833-2.113,0.843-3.205C262.947,93.817,248.973,56.431,217.488,32.807z M237.548,117.481
			c-0.444,0.857-0.686,1.765-0.748,2.679l-38.547,70.236L72.674,93.103l55.371-54.487c0.867-0.311,1.683-0.802,2.389-1.468
			c13.92-13.138,38.359-14.462,62.256-3.379c5.772,2.679,11.363,6.035,16.609,9.967C236.555,64.186,248.7,95.892,237.548,117.481z"
			/>
	</g>
</g>
<g>
	<g>
		<path d="M343.734,255.568c-2.666-2.669-6.987-2.673-9.656-0.01l-57.303,57.194c-2.666,2.662-2.669,6.987-0.007,9.656
			c1.335,1.338,3.082,2.004,4.833,2.004c1.744,0,3.488-0.662,4.823-1.993l57.303-57.194
			C346.393,262.562,346.399,258.237,343.734,255.568z"/>
	</g>
</g>
<g>
	<g>
		<path d="M347.092,208.529l-94.665-100.045c-2.587-2.731-6.905-2.854-9.65-0.266c-2.737,2.594-2.857,6.912-0.266,9.653
			l94.665,100.045c1.341,1.417,3.147,2.133,4.96,2.133c1.683,0,3.369-0.621,4.69-1.867
			C349.564,215.588,349.683,211.27,347.092,208.529z"/>
	</g>
</g>
<g>
	<g>
		<path d="M322.639,344.827h-88.904c-26.307,0-47.708,21.402-47.708,47.708c0,3.768,3.058,6.827,6.827,6.827h170.667
			c3.768,0,6.827-3.055,6.827-6.827C370.347,366.228,348.946,344.827,322.639,344.827z M200.367,385.708
			c3.171-15.517,16.927-27.225,33.369-27.228h88.904c16.442,0,30.198,11.711,33.369,27.228H200.367z"/>
	</g>
</g>
<g>
	<g>
		<path d="M356.694,201.743c-18.821,0-34.133,15.285-34.133,34.079s15.312,34.082,34.133,34.082
			c18.821,0,34.133-15.292,34.133-34.082S375.515,201.743,356.694,201.743z M356.694,256.251c-11.295,0-20.48-9.161-20.48-20.429
			c0-11.261,9.185-20.425,20.48-20.425c11.295,0,20.48,9.161,20.48,20.425S367.989,256.251,356.694,256.251z"/>
	</g>
</g>
<g>
	<g>
		<path d="M81.631,203.747c-2.662-2.669-6.987-2.673-9.653-0.01l-20.48,20.439c-2.669,2.662-2.673,6.987-0.01,9.656
			c1.335,1.338,3.082,2.004,4.833,2.004c1.744,0,3.488-0.662,4.82-1.993l20.48-20.439C84.29,210.741,84.293,206.416,81.631,203.747z
			"/>
	</g>
</g>
<g>
	<g>
		<path d="M49.494,174.488H15.361c-3.768,0-6.827,3.058-6.827,6.827s3.058,6.827,6.827,6.827h34.133
			c3.768,0,6.827-3.058,6.827-6.827S53.262,174.488,49.494,174.488z"/>
	</g>
</g>
<g>
	<g>
		<path d="M104.107,235.812c-3.768,0-6.827,3.058-6.827,6.827v27.256c0,3.768,3.058,6.827,6.827,6.827
			c3.768,0,6.827-3.058,6.827-6.827v-27.256C110.934,238.87,107.876,235.812,104.107,235.812z"/>
	</g>
</g>
<g>
	<g>
		<path d="M349.867,385.708H29.014c-3.768,0-6.827,3.058-6.827,6.827c0,3.768,3.058,6.827,6.827,6.827h320.853
			c3.768,0,6.827-3.058,6.827-6.827C356.694,388.766,353.636,385.708,349.867,385.708z"/>
	</g>
</g>
<g>
</g>
<g>
</g>
<g>
</g>
<g>
</g>
<g>
</g>
<g>
</g>
<g>
</g>
<g>
</g>
<g>
</g>
<g>
</g>
<g>
</g>
<g>
</g>
<g>
</g>
<g>
</g>
<g>
</g>
</svg>
