<?xml version="1.0" encoding="iso-8859-1"?>
<!-- Generator: Adobe Illustrator 19.0.0, SVG Export Plug-In . SVG Version: 6.00 Build 0)  -->
<svg version="1.1" id="Layer_1" xmlns="http://www.w3.org/2000/svg" xmlns:xlink="http://www.w3.org/1999/xlink" x="0px" y="0px"
	 viewBox="0 0 512 512" style="enable-background:new 0 0 512 512;" xml:space="preserve">
<g>
	<g>
		<path d="M509.938,279.669l-53.744-114.83c-3.097-6.618-9.887-11.113-17.195-11.113H71.87c-7.306,0-13.953,4.495-17.05,11.113
			L1.497,279.536C0.329,282.032,0,284.889,0,287.645v52.257c0,10.396,7.875,18.373,18.271,18.373H492.6
			c10.396,0,19.4-7.976,19.4-18.373v-52.257C512,284.889,511.107,282.166,509.938,279.669z M83.845,191.373h343.181l35.986,77.804
			H47.859L83.845,191.373z M474.353,320.627H37.647v-13.804h436.706V320.627z"/>
	</g>
</g>
<g>
</g>
<g>
</g>
<g>
</g>
<g>
</g>
<g>
</g>
<g>
</g>
<g>
</g>
<g>
</g>
<g>
</g>
<g>
</g>
<g>
</g>
<g>
</g>
<g>
</g>
<g>
</g>
<g>
</g>
</svg>
