<?xml version="1.0" encoding="iso-8859-1"?>
<!-- Generator: Adobe Illustrator 19.0.0, SVG Export Plug-In . SVG Version: 6.00 Build 0)  -->
<svg version="1.1" id="Layer_1" xmlns="http://www.w3.org/2000/svg" xmlns:xlink="http://www.w3.org/1999/xlink" x="0px" y="0px"
	 viewBox="0 0 512 512" style="enable-background:new 0 0 512 512;" xml:space="preserve">
<g>
	<g>
		<path d="M394.667,0H117.333C87.936,0,64,23.936,64,53.333v405.333C64,488.064,87.936,512,117.333,512h277.333
			C424.064,512,448,488.064,448,458.667V53.333C448,23.936,424.064,0,394.667,0z M426.667,458.667c0,17.643-14.357,32-32,32H117.333
			c-17.643,0-32-14.357-32-32V53.333c0-17.643,14.357-32,32-32h277.333c17.643,0,32,14.357,32,32V458.667z"/>
	</g>
</g>
<g>
	<g>
		<path d="M394.667,42.667H117.333c-5.888,0-10.667,4.779-10.667,10.667v405.333c0,5.888,4.779,10.667,10.667,10.667h277.333
			c5.888,0,10.667-4.779,10.667-10.667V53.333C405.333,47.445,400.555,42.667,394.667,42.667z M384,448H128V64h256V448z"/>
	</g>
</g>
<g>
	<g>
		<path d="M359.531,365.803c-4.16-4.16-10.923-4.16-15.083,0l-42.667,42.667c-4.16,4.16-4.16,10.923,0,15.083
			c2.091,2.069,4.821,3.115,7.552,3.115c2.731,0,5.461-1.045,7.531-3.115l42.667-42.667
			C363.691,376.725,363.691,369.963,359.531,365.803z"/>
	</g>
</g>
<g>
	<g>
		<path d="M359.531,301.803c-4.16-4.16-10.923-4.16-15.083,0l-85.333,85.333c-4.16,4.16-4.16,10.923,0,15.083
			c2.091,2.069,4.821,3.115,7.552,3.115c2.731,0,5.461-1.045,7.531-3.115l85.333-85.333
			C363.691,312.725,363.691,305.963,359.531,301.803z"/>
	</g>
</g>
<g>
	<g>
		<path d="M210.197,88.469c-4.16-4.16-10.923-4.16-15.083,0l-42.667,42.667c-4.16,4.16-4.16,10.923,0,15.083
			c2.091,2.069,4.821,3.115,7.552,3.115s5.461-1.045,7.531-3.115l42.667-42.667C214.357,99.392,214.357,92.629,210.197,88.469z"/>
	</g>
</g>
<g>
	<g>
		<path d="M252.864,109.803c-4.16-4.16-10.923-4.16-15.083,0l-85.333,85.333c-4.16,4.16-4.16,10.923,0,15.083
			c2.091,2.069,4.821,3.115,7.552,3.115s5.461-1.045,7.531-3.115l85.333-85.333C257.024,120.725,257.024,113.963,252.864,109.803z"
			/>
	</g>
</g>
<g>
</g>
<g>
</g>
<g>
</g>
<g>
</g>
<g>
</g>
<g>
</g>
<g>
</g>
<g>
</g>
<g>
</g>
<g>
</g>
<g>
</g>
<g>
</g>
<g>
</g>
<g>
</g>
<g>
</g>
</svg>
