<?xml version="1.0" encoding="iso-8859-1"?>
<!-- Generator: Adobe Illustrator 19.0.0, SVG Export Plug-In . SVG Version: 6.00 Build 0)  -->
<svg version="1.1" id="Capa_1" xmlns="http://www.w3.org/2000/svg" xmlns:xlink="http://www.w3.org/1999/xlink" x="0px" y="0px"
	 viewBox="0 0 512 512" style="enable-background:new 0 0 512 512;" xml:space="preserve">
<g>
	<g>
		<path d="M347.5,168.002c-11.58,0-21.001,9.422-21.001,21.001V326.4c0,11.58,9.422,21,21.001,21s21.001-9.422,21.001-21.001
			V189.003C368.501,177.424,359.08,168.002,347.5,168.002z M353.5,326.4c0,3.309-2.691,6-6,6s-6-2.691-6-6V189.003
			c0-3.309,2.691-6,6-6s6,2.691,6,6V326.4z"/>
	</g>
</g>
<g>
	<g>
		<path d="M383.242,99.932H52.744c-7.233,0-13.119,5.885-13.119,13.119c0,30.534,0,255.242,0,284.299
			c0,7.233,5.885,13.119,13.119,13.119h330.498c7.233,0,13.119-5.885,13.119-13.119c0-28.304,0-279.125,0-284.299
			C396.361,105.817,390.476,99.932,383.242,99.932z M54.627,278.703h244.014c0.202,88.496-0.475,85.47,0.545,89.764H54.627V278.703z
			 M381.36,395.469H54.627v-12.001c11.75,0,322.794,0,326.733,0V395.469z M381.36,368.467h-63.218c-2.44,0-4.5-2.06-4.5-4.5
			c0-61.208,0-152.882,0-217.532c0-2.439,2.06-4.5,4.5-4.5h63.218V368.467z M381.36,126.934h-63.218
			c-10.753,0-19.501,8.748-19.501,19.501V236.7H123.789c-4.142,0-7.5,3.357-7.5,7.5s3.358,7.5,7.5,7.5h174.853v12.001H54.627
			v-12.001h34.159c4.142,0,7.5-3.357,7.5-7.5s-3.358-7.5-7.5-7.5H54.627V114.933H381.36V126.934z"/>
	</g>
</g>
<g>
	<g>
		<path d="M452.78,337.981v-0.775c0-4.143-3.357-7.5-7.5-7.5s-7.5,3.357-7.5,7.5v0.775c-16.614,3.47-29.132,18.228-29.132,35.856
			c0,20.199,16.433,36.632,36.632,36.632s36.632-16.433,36.632-36.632C481.912,356.21,469.394,341.452,452.78,337.981z
			 M445.28,395.469c-11.928,0-21.631-9.704-21.631-21.631c0-9.291,5.889-17.231,14.131-20.287v20.287c0,4.143,3.357,7.5,7.5,7.5
			s7.5-3.357,7.5-7.5V353.55c8.242,3.056,14.131,10.997,14.131,20.287C466.911,385.765,457.208,395.469,445.28,395.469z"/>
	</g>
</g>
<g>
	<g>
		<path d="M450.19,159.295h-9.82c-4.143,0-7.5,3.357-7.5,7.5c0,4.142,3.357,7.5,7.5,7.5h9.82c4.143,0,7.5-3.357,7.5-7.5
			S454.333,159.295,450.19,159.295z"/>
	</g>
</g>
<g>
	<g>
		<path d="M450.19,202.953h-9.82c-4.143,0-7.5,3.357-7.5,7.5s3.357,7.5,7.5,7.5h9.82c4.143,0,7.5-3.357,7.5-7.5
			S454.333,202.953,450.19,202.953z"/>
	</g>
</g>
<g>
	<g>
		<path d="M450.19,246.612h-9.82c-4.143,0-7.5,3.357-7.5,7.5c0,4.143,3.357,7.501,7.5,7.501h9.82c4.143,0,7.5-3.357,7.5-7.501
			C457.691,249.969,454.333,246.612,450.19,246.612z"/>
	</g>
</g>
<g>
	<g>
		<path d="M450.19,290.271h-9.82c-4.143,0-7.5,3.357-7.5,7.5c0,4.143,3.357,7.5,7.5,7.5h9.82c4.143,0,7.5-3.357,7.5-7.5
			C457.691,293.628,454.333,290.271,450.19,290.271z"/>
	</g>
</g>
<g>
	<g>
		<path d="M504.5,290.867c4.142,0,7.5-3.357,7.5-7.5V93.078c0-17.22-14.01-31.23-31.231-31.23h-26.338
			c4.037-13.508-6.152-27.002-20.117-27.002h-27.954c-4.143,0-7.5,3.357-7.5,7.5s3.357,7.5,7.5,7.5h27.954c3.309,0,6,2.691,6,6
			s-2.691,6-6,6H77.685c-3.309,0-6-2.691-6-6s2.691-6,6-6h293.675c4.143,0,7.5-3.357,7.5-7.5s-3.357-7.5-7.5-7.5H77.685
			c-13.991,0-24.148,13.514-20.117,27.002H31.23C14.01,61.848,0,75.858,0,93.078v325.048c0,17.22,14.01,31.23,31.23,31.23h11.961
			v8.297c0,10.753,8.749,19.501,19.501,19.501h31.594c10.753,0,19.501-8.748,19.501-19.501v-8.297h284.425v8.297
			c0,10.753,8.749,19.501,19.501,19.501h31.594c10.753,0,19.501-8.748,19.501-19.501v-8.297h11.961
			c17.221,0,31.231-14.01,31.231-31.23v-99.757c0-4.143-3.358-7.5-7.5-7.5c-4.143,0-7.5,3.357-7.5,7.5v99.757
			c0,8.949-7.28,16.229-16.23,16.229c-19.052,0-430.43,0-449.539,0c-8.948,0-16.229-7.28-16.229-16.229V93.078
			c0-8.949,7.28-16.229,16.23-16.229c9.178,0,445.639,0,449.539,0c8.949,0,16.23,7.279,16.23,16.229v190.289
			C496.999,287.509,500.356,290.867,504.5,290.867z M413.213,449.355h40.594v8.297c0,2.439-2.061,4.5-4.5,4.5h-31.594
			c-2.44,0-4.5-2.061-4.5-4.5V449.355z M58.192,449.355h40.594v8.297c0,2.439-2.061,4.5-4.5,4.5H62.692c-2.439,0-4.5-2.061-4.5-4.5
			V449.355z"/>
	</g>
</g>
<g>
</g>
<g>
</g>
<g>
</g>
<g>
</g>
<g>
</g>
<g>
</g>
<g>
</g>
<g>
</g>
<g>
</g>
<g>
</g>
<g>
</g>
<g>
</g>
<g>
</g>
<g>
</g>
<g>
</g>
</svg>
