<?xml version="1.0" encoding="iso-8859-1"?>
<!-- Generator: Adobe Illustrator 19.0.0, SVG Export Plug-In . SVG Version: 6.00 Build 0)  -->
<svg version="1.1" id="Capa_1" xmlns="http://www.w3.org/2000/svg" xmlns:xlink="http://www.w3.org/1999/xlink" x="0px" y="0px"
	 viewBox="0 0 512 512" style="enable-background:new 0 0 512 512;" xml:space="preserve">
<g>
	<g>
		<path d="M469.308,502.724l-19.371-222.549C441.114,178.825,357.743,102.391,256,102.4c-0.009,0-0.017,0-0.017,0
			c-101.734,0-185.096,76.424-193.911,177.775L42.701,502.724c-0.205,2.389,0.597,4.745,2.21,6.511S48.811,512,51.2,512h409.6
			c2.389,0,4.676-0.998,6.298-2.765C468.719,507.469,469.513,505.105,469.308,502.724z M60.51,494.933L79.07,281.66
			c8.047-92.476,84.113-162.202,176.93-162.193c0.009,0,0.009,0,0.017,0c92.817,0,168.875,69.726,176.913,162.193l18.56,213.274
			H60.51z"/>
	</g>
</g>
<g>
	<g>
		<path d="M469.333,0H42.667c-4.71,0-8.533,3.823-8.533,8.533c0,32.939,26.795,59.733,59.733,59.733h324.267
			c32.93,0,59.733-26.795,59.733-59.733C477.867,3.823,474.052,0,469.333,0z M418.133,51.2H93.867
			c-20.608,0-37.845-14.686-41.805-34.133h407.876C455.979,36.514,438.741,51.2,418.133,51.2z"/>
	</g>
</g>
<g>
	<g>
		<rect x="230.4" y="59.733" width="17.067" height="51.2"/>
	</g>
</g>
<g>
	<g>
		<rect x="264.533" y="59.733" width="17.067" height="51.2"/>
	</g>
</g>
<g>
	<g>
		<path d="M256,153.6c-84.693,0-153.6,68.907-153.6,153.6S171.307,460.8,256,460.8s153.6-68.907,153.6-153.6
			S340.693,153.6,256,153.6z M256,443.733c-75.281,0-136.533-61.252-136.533-136.533S180.719,170.667,256,170.667
			S392.533,231.919,392.533,307.2S331.281,443.733,256,443.733z"/>
	</g>
</g>
<g>
	<g>
		<rect x="247.467" y="162.133" width="17.067" height="34.133"/>
	</g>
</g>
<g>
	<g>
		<rect x="247.467" y="418.133" width="17.067" height="34.133"/>
	</g>
</g>
<g>
	<g>
		<rect x="110.933" y="298.667" width="34.133" height="17.067"/>
	</g>
</g>
<g>
	<g>
		<rect x="366.933" y="298.667" width="34.133" height="17.067"/>
	</g>
</g>
<g>
	<g>
		
			<rect x="156.965" y="199.611" transform="matrix(0.7071 -0.7071 0.7071 0.7071 -104.7409 180.4882)" width="17.066" height="34.133"/>
	</g>
</g>
<g>
	<g>
		
			<rect x="337.973" y="380.609" transform="matrix(0.7071 -0.7071 0.7071 0.7071 -179.7098 361.4933)" width="17.066" height="34.133"/>
	</g>
</g>
<g>
	<g>
		
			<rect x="148.462" y="389.17" transform="matrix(0.7071 -0.7071 0.7071 0.7071 -232.7367 233.5311)" width="34.133" height="17.067"/>
	</g>
</g>
<g>
	<g>
		
			<rect x="329.454" y="208.177" transform="matrix(0.7071 -0.7071 0.7071 0.7071 -51.7437 308.5001)" width="34.133" height="17.066"/>
	</g>
</g>
<g>
	<g>
		<circle cx="256" cy="307.2" r="17.067"/>
	</g>
</g>
<g>
	<g>
		<rect x="247.467" y="213.333" width="17.067" height="85.333"/>
	</g>
</g>
<g>
</g>
<g>
</g>
<g>
</g>
<g>
</g>
<g>
</g>
<g>
</g>
<g>
</g>
<g>
</g>
<g>
</g>
<g>
</g>
<g>
</g>
<g>
</g>
<g>
</g>
<g>
</g>
<g>
</g>
</svg>
