<?xml version="1.0" encoding="iso-8859-1"?>
<!-- Generator: Adobe Illustrator 18.0.0, SVG Export Plug-In . SVG Version: 6.00 Build 0)  -->
<!DOCTYPE svg PUBLIC "-//W3C//DTD SVG 1.1//EN" "http://www.w3.org/Graphics/SVG/1.1/DTD/svg11.dtd">
<svg version="1.1" id="Capa_1" xmlns="http://www.w3.org/2000/svg" xmlns:xlink="http://www.w3.org/1999/xlink" x="0px" y="0px"
	 viewBox="0 0 310.711 310.711" style="enable-background:new 0 0 310.711 310.711;" xml:space="preserve">
<g>
	<path d="M64.298,296.033c7.823,3.98,17.763,5.999,29.544,5.999c0.001,0,0.001,0,0.002,0c14.782,0,27.42-3.178,28.507-3.459
		c6.732-1.629,11.434-4.949,13.975-9.869c4.428-8.571,0.957-19.744-2.555-28.502l-3.518-8.873
		c-6.672-16.595-16.427-35.643-32.777-35.643c-1.566,0-3.161,0.188-4.74,0.561c-0.018,0.004-0.036,0.009-0.053,0.013l-9.143,2.251
		c-0.745,0.176-1.512,0.404-2.323,0.645c-2.033,0.606-4.338,1.294-6.765,1.294c-8.32,0-15.199-9.467-20.446-28.138
		c-3.658-13.009-3.747-22.902-0.255-28.611c3.166-5.177,8.992-6.352,12.847-7.129c0.606-0.122,1.153-0.233,1.67-0.354l9.188-2.204
		c6.186-1.474,14.208-6.295,17.291-20.898c1.51-7.154,1.768-16.115,0.79-27.375l-0.799-9.566c-0.403-4.408-0.991-8.18-1.791-11.434
		c17.087-39.582,55.735-65.056,98.972-65.056c59.435,0,107.788,48.351,107.788,107.78v125.93c0,3.039,2.463,5.503,5.503,5.503
		c3.04,0,5.503-2.464,5.503-5.503v-125.93c0-31.733-12.357-61.565-34.794-83.998c-22.436-22.434-52.268-34.788-84-34.788
		c-23.987,0-47.102,7.119-66.848,20.588c-16.161,11.023-29.224,25.678-38.247,42.794c-3.44-3.775-7.993-5.742-13.399-5.742
		c-1.968,0-4.084,0.264-6.29,0.786c-2.193,0.478-35.737,8.068-50.648,28.503c-17.925,24.456-21.25,60.891-9.888,108.275
		C17.812,251.26,37.225,282.264,64.298,296.033z M25.369,102.105c12.607-17.277,43.827-24.187,44.137-24.253
		c0.041-0.009,0.082-0.018,0.123-0.027c1.391-0.332,2.668-0.5,3.795-0.5c2.771,0,8.536,0,10.349,19.81l0.797,9.541
		c1.938,22.318-1.313,34.644-9.673,36.634l-9.154,2.197c-0.384,0.089-0.829,0.178-1.321,0.276
		c-4.67,0.941-14.389,2.901-20.061,12.176c-5.277,8.63-5.587,20.841-0.95,37.332c3.703,13.177,8.287,22.485,14.015,28.46
		c4.902,5.113,10.63,7.705,17.026,7.705c4.032,0,7.428-1.013,9.908-1.752c0.66-0.197,1.284-0.383,1.716-0.484
		c0.021-0.005,0.042-0.01,0.063-0.015l9.144-2.251c0.745-0.174,1.482-0.262,2.192-0.262c11.01,0,19.707,21.633,22.556,28.717
		l3.517,8.869c3.825,9.54,4.806,15.878,3,19.375c-0.378,0.732-1.529,2.959-6.82,4.231c-0.037,0.009-0.073,0.019-0.109,0.027
		c-0.119,0.031-12.043,3.114-25.776,3.114c-10.03,0-18.291-1.616-24.554-4.803c-24.057-12.234-41.545-40.791-51.984-84.891
		C6.726,157.222,9.438,123.841,25.369,102.105z"/>
	<path d="M276.095,155.116c0-1.579-0.683-3.086-1.868-4.131c-0.227-0.2-22.833-20.368-31.845-48.622
		c-0.597-1.872-2.147-3.284-4.066-3.704c-1.921-0.42-3.918,0.217-5.242,1.668c-40.804,44.746-91.979,49.576-112.087,49.576
		c-4.526,0-7.16-0.259-7.179-0.261c-1.548-0.159-3.094,0.345-4.25,1.389c-1.156,1.044-1.816,2.528-1.816,4.085
		c0,46.404,37.761,84.156,84.175,84.156C238.333,239.272,276.095,201.52,276.095,155.116z M191.917,228.266
		c-38.4,0-69.987-29.729-72.944-67.373c0.629,0.01,1.301,0.016,2.014,0.016c20.565,0,71.416-4.705,114.034-46.732
		c9.276,22.16,24.639,38.133,30.031,43.305C263.8,196.727,231.474,228.266,191.917,228.266z"/>
</g>
<g>
</g>
<g>
</g>
<g>
</g>
<g>
</g>
<g>
</g>
<g>
</g>
<g>
</g>
<g>
</g>
<g>
</g>
<g>
</g>
<g>
</g>
<g>
</g>
<g>
</g>
<g>
</g>
<g>
</g>
</svg>
