<?xml version="1.0" encoding="iso-8859-1"?>
<!-- Generator: Adobe Illustrator 19.0.0, SVG Export Plug-In . SVG Version: 6.00 Build 0)  -->
<svg version="1.1" id="Capa_1" xmlns="http://www.w3.org/2000/svg" xmlns:xlink="http://www.w3.org/1999/xlink" x="0px" y="0px"
	 viewBox="0 0 512 512" style="enable-background:new 0 0 512 512;" xml:space="preserve">
<g>
	<g>
		<circle cx="406" cy="45" r="15"/>
	</g>
</g>
<g>
	<g>
		<circle cx="406" cy="105" r="15"/>
	</g>
</g>
<g>
	<g>
		<circle cx="466" cy="135" r="15"/>
	</g>
</g>
<g>
	<g>
		<circle cx="466" cy="75" r="15"/>
	</g>
</g>
<g>
	<g>
		<circle cx="466" cy="15" r="15"/>
	</g>
</g>
<g>
	<g>
		<path d="M346,30c-10.298,0-200.01,0-210,0C78.103,30,31,77.103,31,135c0,8.284,6.716,15,15,15c24.813,0,45,20.187,45,45v25.539
			c-38.881,60.01-60,132.553-60,204.628V467c0,24.813,20.187,45,45,45h150c24.813,0,45-20.187,45-45.001l-0.001-35.937
			c0-39.09-11.549-77.939-32.519-109.39c-8.552-12.826-15.161-26.66-19.766-41.121c-0.003-0.01-0.007-0.021-0.01-0.031
			c-5.07-15.928-7.703-32.619-7.703-49.598V225v-0.041C223.544,234.397,239.129,240,256,240h30c6.067,0,11.537-3.655,13.858-9.26
			c2.322-5.605,1.039-12.057-3.251-16.347c-15.757-15.757-24.738-36.473-25.529-58.627c15.827-5.625,27.018-19.463,29.429-35.767
			H346c8.284,0,15-6.716,15-15V45C361,36.716,354.284,30,346,30z M84.197,300H121v92H62.615
			C65.656,360.475,72.969,329.388,84.197,300z M97.325,270c5.107-10.308,10.714-20.332,16.821-30h67.065
			c0.47,10.135,1.754,20.156,3.777,30H97.325z M240.744,422c0.168,3.025,0.354,6.049,0.354,9.063L241.1,467
			c0,8.271-6.829,15-15.1,15H76c-8.271,0-15-6.729-15-15v-41.833c0-1.056,0.019-2.111,0.028-3.167H121v15c0,8.284,6.716,15,15,15
			s15-6.716,15-15v-15H240.744z M213.519,338.315c10.512,15.766,18.32,34.292,22.875,53.685H151v-92h42.746
			C198.861,313.374,205.457,326.224,213.519,338.315z M212.227,175.402l29.495-9.831c1.723,15.743,6.554,30.799,14.218,44.429
			C234.733,209.973,216.93,195.196,212.227,175.402z M271,113.377c0,6.467-4.122,12.185-10.257,14.23l-9.191,3.064
			c-0.014,0.004-0.028,0.01-0.042,0.014l-59.955,19.985C185.439,152.566,181,158.342,181,165v45h-60v-15
			c0-35.805-25.221-65.83-58.829-73.245C68.444,86.695,99.163,60,136,60h135C271,66.712,271,105.373,271,113.377z M331,90h-30V60h30
			V90z"/>
	</g>
</g>
<g>
</g>
<g>
</g>
<g>
</g>
<g>
</g>
<g>
</g>
<g>
</g>
<g>
</g>
<g>
</g>
<g>
</g>
<g>
</g>
<g>
</g>
<g>
</g>
<g>
</g>
<g>
</g>
<g>
</g>
</svg>
