<?xml version="1.0" encoding="iso-8859-1"?>
<!-- Generator: Adobe Illustrator 18.0.0, SVG Export Plug-In . SVG Version: 6.00 Build 0)  -->
<!DOCTYPE svg PUBLIC "-//W3C//DTD SVG 1.1//EN" "http://www.w3.org/Graphics/SVG/1.1/DTD/svg11.dtd">
<svg version="1.1" id="Capa_1" xmlns="http://www.w3.org/2000/svg" xmlns:xlink="http://www.w3.org/1999/xlink" x="0px" y="0px"
	 viewBox="0 0 415.864 415.864" style="enable-background:new 0 0 415.864 415.864;" xml:space="preserve">
<g>
	<path d="M340.514,42.562l-17.899-2.693l0.595-3.956c0.329-2.185-1.176-4.222-3.36-4.55L207.119,14.402
		c-2.179-0.329-4.221,1.175-4.55,3.36l-1.339,8.9l-40.448-6.085c-0.498-0.959-1.053-1.895-1.707-2.781
		c-3.253-4.405-8.026-7.279-13.441-8.094L81.45,0.045c-2.181-0.329-4.222,1.175-4.55,3.36l-4.91,32.633
		c-0.158,1.049,0.107,2.117,0.737,2.971c0.63,0.853,1.573,1.422,2.623,1.579l64.185,9.657c1.016,0.153,2.049,0.23,3.069,0.23
		c5.626,0,10.829-2.354,14.584-6.17l40.471,6.089l-1.339,8.901c-0.158,1.049,0.107,2.117,0.737,2.971
		c0.63,0.854,1.574,1.422,2.623,1.579l12.381,1.862l18.744,41.655c0.645,1.436,2.073,2.358,3.647,2.358h15.5v7.144h-22
		c-2.209,0-4,1.791-4,4c0,1.412,0.735,2.646,1.84,3.358c-12.022,3.48-20.84,14.581-20.84,27.708v246.934c0,2.209,1.791,4,4,4h7.5v9
		c0,2.209,1.791,4,4,4h87c2.209,0,4-1.791,4-4v-9h7.5c2.209,0,4-1.791,4-4V151.931c0-13.391-9.173-24.679-21.564-27.914
		c0.945-0.732,1.564-1.865,1.564-3.152c0-2.209-1.791-4-4-4h-21v-7.144h15.5c1.739,0,3.278-1.123,3.81-2.779l8.689-27.107
		l6.461,0.971c2.175,0.34,4.222-1.175,4.55-3.36l0.595-3.955c0,0,18.296,2.738,18.494,2.738c0.851,0,1.684-0.271,2.376-0.782
		c0.853-0.63,1.422-1.573,1.579-2.623l3.868-25.711C344.203,44.927,342.698,42.89,340.514,42.562z M335.368,49.877l-0.744,4.945
		l-13.943-2.098l0.744-4.945L335.368,49.877z M84.216,8.551l3.368,0.507l-3.72,24.722l-3.369-0.507L84.216,8.551z M142.604,42.476
		c-0.624,0-1.256-0.047-1.88-0.141l-48.95-7.366l3.719-24.722l48.95,7.365c3.302,0.497,6.212,2.25,8.195,4.936
		c1.983,2.685,2.803,5.983,2.306,9.285C154.032,37.901,148.727,42.476,142.604,42.476z M161.853,36.918
		c0.453-1.247,0.799-2.545,1.002-3.895c0.202-1.344,0.27-2.687,0.211-4.014l36.974,5.563l-1.19,7.912L161.853,36.918z
		 M314.953,194.864h-102v-38.934h102V194.864z M212.953,202.864h102v12h-102V202.864z M303.453,407.864h-79v-5h79V407.864z
		 M212.953,394.864v-172h102v172H212.953z M314.568,147.931h-101.23c1.871-9.589,10.335-16.848,20.463-16.848h60.305
		C304.233,131.083,312.697,138.342,314.568,147.931z M269.953,116.864h-12v-7.144h12V116.864z M309.646,72.3l-5.871-0.883
		c-1.938-0.291-3.805,0.865-4.404,2.734l-8.836,27.569h-53.496l-18.578-41.286c-0.558-1.24-1.708-2.111-3.053-2.313l-10.582-1.592
		l5.059-33.622l104.819,15.771L309.646,72.3z M318.747,65.58l0.744-4.946l13.943,2.098l-0.744,4.945L318.747,65.58z"/>
	<path d="M124.007,29.101l-21.755-3.273c-2.182-0.33-4.222,1.175-4.55,3.36c-0.329,2.185,1.176,4.222,3.36,4.55l21.755,3.274
		c0.201,0.03,0.401,0.046,0.6,0.046c1.946,0,3.652-1.423,3.95-3.406C127.696,31.466,126.191,29.429,124.007,29.101z"/>
	<path d="M125.763,17.432l-21.755-3.274c-2.174-0.329-4.222,1.175-4.55,3.36c-0.329,2.185,1.176,4.222,3.36,4.55l21.755,3.273
		c0.201,0.03,0.401,0.046,0.6,0.046c1.946,0,3.652-1.423,3.95-3.406C129.452,19.797,127.947,17.76,125.763,17.432z"/>
</g>
<g>
</g>
<g>
</g>
<g>
</g>
<g>
</g>
<g>
</g>
<g>
</g>
<g>
</g>
<g>
</g>
<g>
</g>
<g>
</g>
<g>
</g>
<g>
</g>
<g>
</g>
<g>
</g>
<g>
</g>
</svg>
