<?xml version="1.0" encoding="iso-8859-1"?>
<!-- Generator: Adobe Illustrator 19.0.0, SVG Export Plug-In . SVG Version: 6.00 Build 0)  -->
<svg version="1.1" id="Capa_1" xmlns="http://www.w3.org/2000/svg" xmlns:xlink="http://www.w3.org/1999/xlink" x="0px" y="0px"
	 viewBox="0 0 512.002 512.002" style="enable-background:new 0 0 512.002 512.002;" xml:space="preserve">
<g>
	<g>
		<path d="M359.099,274.883c21.187-22.265,19.253-53.416,19.253-53.416c11.856-3.29,20.586-14.172,20.586-27.062
			c0-12.889-8.731-23.771-20.586-27.061v-34.725c11.856-3.29,20.586-14.172,20.586-27.062c0-12.889-8.731-23.771-20.586-27.061
			c0,0-3.316-78.496-75.237-78.496h-94.229c-71.901,0-75.237,78.496-75.237,78.496c-11.856,3.29-20.586,14.172-20.586,27.062
			c0,12.889,8.731,23.771,20.586,27.061v34.725c-11.856,3.29-20.586,14.172-20.586,27.061c0,12.89,8.731,23.772,20.586,27.062
			c0,0-1.913,34.534,19.245,53.416c0,0-61.501-2.414-61.501,57.682V454.32c0,31.806,25.876,57.682,57.682,57.682h213.853
			c31.806,0,57.682-25.876,57.682-57.682V332.564C420.609,272.468,359.099,274.883,359.099,274.883z M128.063,105.558
			c0-7.216,5.871-13.086,13.086-13.086h165.763c4.142,0,7.5-3.357,7.5-7.5s-3.358-7.5-7.5-7.5H148.649
			c0,0,1.984-62.471,60.237-62.471h94.229c55.911,0,60.237,62.471,60.237,62.471h-26.786c-4.142,0-7.5,3.357-7.5,7.5
			s3.358,7.5,7.5,7.5h34.286c7.216,0,13.086,5.871,13.086,13.087s-5.871,13.086-13.086,13.086H141.149
			C133.934,118.645,128.063,112.773,128.063,105.558z M363.353,133.645v32.675H148.649v-32.675H363.353z M333.418,497.001H149.075
			c-23.535,0-42.682-19.146-42.682-42.682V332.564c0-23.535,19.147-42.682,42.682-42.682h14.913v182.949c0,4.143,3.358,7.5,7.5,7.5
			c4.142,0,7.5-3.357,7.5-7.5v-97.067h14.436v31.968c0,12.384,10.075,22.459,22.459,22.459h9.289
			c12.384,0,22.459-10.075,22.459-22.459v-31.968h16.74v31.968c0,12.384,10.075,22.459,22.459,22.459h9.289
			c12.384,0,22.459-10.075,22.459-22.459v-31.968h14.841V497.001z M208.423,387.977v-12.213h24.208v12.213H208.423z
			 M232.631,402.977v4.755c0,4.113-3.346,7.459-7.459,7.459h-9.289c-4.113,0-7.459-3.346-7.459-7.459v-4.755H232.631z
			 M279.371,387.977v-12.213h24.208v12.213H279.371z M303.579,402.977v4.755c0,4.113-3.346,7.459-7.459,7.459h-9.289
			c-4.113,0-7.459-3.346-7.459-7.459v-4.755H303.579z M333.42,360.764H178.988v-70.881H333.42V360.764z M336.635,274.883H175.656
			c-28.435-15.178-27.007-52.391-27.007-52.391h92.216c4.142,0,7.5-3.357,7.5-7.5s-3.358-7.5-7.5-7.5h-99.716
			c-7.216,0-13.086-5.871-13.086-13.087s5.871-13.086,13.086-13.086h229.703c7.216,0,13.086,5.87,13.086,13.086
			s-5.871,13.087-13.086,13.087h-99.659c-4.142,0-7.5,3.357-7.5,7.5s3.358,7.5,7.5,7.5h92.159
			C363.352,222.492,364.013,257.605,336.635,274.883z M405.609,454.319c0,23.535-19.147,42.682-42.682,42.682H348.42V289.883h14.507
			c23.535,0,42.682,19.146,42.682,42.682V454.319z"/>
	</g>
</g>
<g>
</g>
<g>
</g>
<g>
</g>
<g>
</g>
<g>
</g>
<g>
</g>
<g>
</g>
<g>
</g>
<g>
</g>
<g>
</g>
<g>
</g>
<g>
</g>
<g>
</g>
<g>
</g>
<g>
</g>
</svg>
