<?xml version="1.0" encoding="iso-8859-1"?>
<!-- Generator: Adobe Illustrator 19.0.0, SVG Export Plug-In . SVG Version: 6.00 Build 0)  -->
<svg version="1.1" id="Capa_1" xmlns="http://www.w3.org/2000/svg" xmlns:xlink="http://www.w3.org/1999/xlink" x="0px" y="0px"
	 viewBox="0 0 512 512" style="enable-background:new 0 0 512 512;" xml:space="preserve">
<g>
	<g>
		<g>
			<path d="M469.333,64H42.667C19.135,64,0,83.135,0,106.667v298.667C0,428.865,19.135,448,42.667,448h426.667
				C492.865,448,512,428.865,512,405.333V106.667C512,83.135,492.865,64,469.333,64z M490.667,405.333
				c0,11.76-9.573,21.333-21.333,21.333H42.667c-11.76,0-21.333-9.573-21.333-21.333V106.667c0-11.76,9.573-21.333,21.333-21.333
				h426.667c11.76,0,21.333,9.573,21.333,21.333V405.333z"/>
			<path d="M384,213.333c5.885,0,10.667,4.781,10.667,10.667c0,5.896,4.771,10.667,10.667,10.667H448
				c5.896,0,10.667-4.771,10.667-10.667c0-41.167-33.5-74.667-74.667-74.667c-41.167,0-74.667,33.5-74.667,74.667v64
				c0,41.167,33.5,74.667,74.667,74.667c41.167,0,74.667-33.5,74.667-74.667c0-5.896-4.771-10.667-10.667-10.667h-42.667
				c-5.896,0-10.667,4.771-10.667,10.667c0,5.885-4.781,10.667-10.667,10.667c-5.885,0-10.667-4.781-10.667-10.667v-64
				C373.333,218.115,378.115,213.333,384,213.333z M384,320c13.906,0,25.771-8.917,30.177-21.333h22.083
				c-4.958,24.313-26.5,42.667-52.26,42.667c-29.406,0-53.333-23.927-53.333-53.333v-64c0-29.406,23.927-53.333,53.333-53.333
				c25.76,0,47.302,18.354,52.26,42.667h-22.083C409.771,200.917,397.906,192,384,192c-17.646,0-32,14.354-32,32v64
				C352,305.646,366.354,320,384,320z"/>
			<path d="M277.333,149.333h-42.667c-5.896,0-10.667,4.771-10.667,10.667v104.146l-10.667,21.333l-10.667-21.333v-82.813
				c0-5.896-4.771-10.667-10.667-10.667h-42.667c-5.896,0-10.667,4.771-10.667,10.667v82.813L128,285.479l-10.667-21.333V160
				c0-5.896-4.771-10.667-10.667-10.667H64c-5.896,0-10.667,4.771-10.667,10.667v117.333c0,1.854,0.49,3.677,1.406,5.292
				l42.667,74.667c1.896,3.323,5.438,5.375,9.26,5.375h42.667c4.042,0,7.729-2.281,9.542-5.896l11.792-23.583l11.792,23.583
				c1.813,3.615,5.5,5.896,9.542,5.896h42.667c3.823,0,7.365-2.052,9.26-5.375l42.667-74.667c0.917-1.615,1.406-3.438,1.406-5.292
				V160C288,154.104,283.229,149.333,277.333,149.333z M266.667,274.5l-38.188,66.833h-29.885l-18.385-36.771
				c-3.625-7.229-15.458-7.229-19.083,0l-18.385,36.771h-29.885L74.667,274.5V170.667H96v96c0,1.656,0.385,3.292,1.125,4.771
				l21.333,42.667c3.625,7.229,15.458,7.229,19.083,0l21.333-42.667c0.74-1.479,1.125-3.115,1.125-4.771V192h21.333v74.667
				c0,1.656,0.385,3.292,1.125,4.771l21.333,42.667c3.625,7.229,15.458,7.229,19.083,0l21.333-42.667
				c0.74-1.479,1.125-3.115,1.125-4.771v-96h21.333V274.5z"/>
		</g>
	</g>
</g>
<g>
</g>
<g>
</g>
<g>
</g>
<g>
</g>
<g>
</g>
<g>
</g>
<g>
</g>
<g>
</g>
<g>
</g>
<g>
</g>
<g>
</g>
<g>
</g>
<g>
</g>
<g>
</g>
<g>
</g>
</svg>
