<?xml version="1.0" encoding="utf-8"?>
<!-- Generator: Adobe Illustrator 16.0.0, SVG Export Plug-In . SVG Version: 6.00 Build 0)  -->
<!DOCTYPE svg PUBLIC "-//W3C//DTD SVG 1.1//EN" "http://www.w3.org/Graphics/SVG/1.1/DTD/svg11.dtd">
<svg version="1.1" id="Layer_1" xmlns="http://www.w3.org/2000/svg" xmlns:xlink="http://www.w3.org/1999/xlink" x="0px" y="0px"
	 width="551px" height="551px" viewBox="0 0 551 551" enable-background="new 0 0 551 551" xml:space="preserve">
<title>Group 20</title>
<desc>Created with Sketch.</desc>
<g id="Page-1">
	<g id="Group-20" transform="translate(5.000000, 5.000000)">
		<g enable-background="new    ">
			<path fill="#FFFFFF" d="M355.149,308.824c0,17.409-6.797,31.867-20.383,43.378c-13.59,11.513-31.391,18.335-53.4,20.468v60.98
				h-19.878v-60.139c-14.824-0.113-28.751-1.542-41.777-4.296c-13.029-2.75-24.316-6.317-33.86-10.696v-33.355h2.695
				c2.132,1.574,5.951,3.849,11.455,6.823c5.501,2.977,10.836,5.419,16.003,7.327c5.838,2.135,12.661,4.128,20.468,5.98
				c7.804,1.854,16.143,2.948,25.016,3.285v-72.941c-4.493-0.898-8.649-1.77-12.466-2.611c-3.819-0.843-7.357-1.711-10.613-2.611
				c-18.307-4.604-31.446-11.539-39.419-20.805c-7.976-9.265-11.96-20.691-11.96-34.281c0-16.619,6.541-30.658,19.625-42.113
				c13.082-11.455,31.359-18.136,54.833-20.047v-45.82h19.878v45.483c11.342,0.227,22.965,1.574,34.869,4.043
				c11.902,2.472,21.9,5.335,29.986,8.591v33.018h-2.359c-8.422-5.164-17.211-9.741-26.363-13.729
				c-9.154-3.985-21.199-6.486-36.133-7.496v72.604c3.369,0.563,7.016,1.321,10.949,2.274c3.93,0.955,7.354,1.713,10.275,2.273
				c16.732,3.596,29.676,9.771,38.83,18.531C350.573,281.703,355.149,293.663,355.149,308.824z M261.488,247v-69.572
				c-12.019,0.9-22.126,4.186-30.322,9.854c-8.199,5.673-12.297,13.562-12.297,23.669c0,10.22,3.032,17.914,9.097,23.078
				C234.029,239.196,245.203,243.521,261.488,247z M323.312,313.204c0-10.555-3.285-18.277-9.855-23.163
				c-6.568-4.885-17.266-8.73-32.09-11.539v69.741c13.477-1.348,23.836-4.772,31.08-10.276
				C319.69,332.466,323.312,324.212,323.312,313.204z"/>
		</g>
		<g id="Oval-9">
			<path fill="#FFFFFF" d="M270.5,545.874c-73.572,0-142.74-28.65-194.764-80.674C23.713,413.177-4.937,344.009-4.937,270.437
				s28.65-142.74,80.673-194.764C127.76,23.65,196.928-5,270.5-5c73.572,0,142.74,28.65,194.764,80.673
				c52.023,52.023,80.674,121.192,80.674,194.764s-28.65,142.74-80.674,194.763S344.072,545.874,270.5,545.874z M270.5,5
				C199.599,5,132.942,32.61,82.808,82.745S5.063,199.536,5.063,270.437s27.61,137.558,77.745,187.692
				c50.134,50.135,116.792,77.745,187.692,77.745c70.9,0,137.559-27.61,187.691-77.745c50.135-50.134,77.746-116.791,77.746-187.692
				s-27.611-137.558-77.746-187.692C408.059,32.61,341.4,5,270.5,5z"/>
		</g>
	</g>
</g>
</svg>
