<?xml version="1.0" encoding="UTF-8"?>
<svg width="387px" height="357px" viewBox="0 0 387 357" version="1.1" xmlns="http://www.w3.org/2000/svg" xmlns:xlink="http://www.w3.org/1999/xlink">
    <!-- Generator: Sketch 45.2 (43514) - http://www.bohemiancoding.com/sketch -->
    <title>Shape</title>
    <desc>Created with Sketch.</desc>
    <defs></defs>
    <g id="Page-1" stroke="none" stroke-width="1" fill="none" fill-rule="evenodd">
        <path d="M385.448026,110.128525 C381.802181,78.5560922 365.248637,49.0907001 340.030508,29.2894921 C315.368174,9.92379446 284.355683,1.4500056 252.534387,5.44011078 C230.265286,8.68362663 211.1526,16.7177573 195.623542,29.3558556 C189.667418,24.8514333 180.812039,18.4556514 175.498812,15.5024758 C124.286932,-12.9384298 61.1379176,-1.36629525 25.3804366,42.9977016 C1.14116976,72.8239453 -5.78137239,109.186993 4.8077529,151.054064 C11.0625124,175.869863 25.6790723,200.569527 45.1484629,219.37943 C45.1692015,230.545088 49.8519756,241.204725 58.3465031,249.131015 C64.6510352,255.020775 72.4072687,258.650029 80.2506044,259.587413 C81.449295,268.189781 85.5430932,276.568173 91.5199555,282.055604 C97.4719315,287.937069 105.414812,291.524845 113.834681,292.346094 C115.132917,301.114371 119.537794,310.172988 125.742781,315.876101 C131.914586,321.533589 141.707349,327.025168 151.699203,328.559824 C154.59431,339.082586 160.351344,350.007676 174.457734,354.72778 C176.635287,355.457778 181.268288,356.731128 187.017026,356.731128 C193.976897,356.731128 202.575118,354.864654 210.435044,347.900635 C210.571919,347.780351 210.700498,347.651772 210.833225,347.523193 C211.517599,346.830524 212.766062,345.669163 214.383672,344.151098 C228.697449,330.745671 239.709641,319.401661 245.250993,310.040261 C254.935916,312.931221 266.980891,312.371279 274.76201,306.3322 C284.334945,299.484317 288.150846,289.567122 288.154993,279.973449 C297.441735,279.894643 307.006374,276.004083 312.771703,270.325856 C318.852258,264.332403 322.751113,254.576969 322.328046,245.161648 C330.577858,244.842274 340.855904,242.361938 349.010319,233.747127 C357.513142,224.771464 357.782744,212.942171 356.06144,205.248153 C378.778495,177.993495 389.463017,143.579875 385.448026,110.128525 Z M61.7476322,219.632441 L101.088742,181.535647 C102.984249,180.266445 114.58127,173.252653 123.822387,184.335357 C131.064304,193.03727 127.754424,200.602709 126.427154,202.912988 L84.6803677,243.224664 C79.5703786,243.357391 74.1036856,241.146657 69.6656268,237.003086 C64.6468875,232.320312 61.8513252,226.111177 61.7476322,219.632441 Z M96.4972177,254.867309 L137.912187,214.875008 C140.649681,213.415011 151.50426,208.280135 157.974701,214.67177 C164.710596,221.333006 163.623894,230.412361 162.806793,234.124569 L118.538194,275.887947 C113.706102,276.062151 107.650433,274.672665 102.963511,270.043811 C99.1766438,266.563876 96.6423878,260.412809 96.4972177,254.867309 Z M130.048112,287.841671 L174.196428,246.198578 C178.302669,245.48517 188.57242,244.514604 194.221613,251.192431 C198.116321,255.804694 197.888196,263.801495 197.237004,268.206372 L154.980048,312.20537 C149.193981,311.475371 141.819338,308.099129 136.962359,303.648627 C133.096686,300.09818 130.238908,293.291774 130.048112,287.841671 Z M203.04381,332.03976 C201.380575,333.599302 200.065748,334.831174 199.261091,335.627536 C191.60855,342.251442 182.388172,339.8748 179.729484,338.991336 C174.233758,337.153896 170.181437,333.682256 167.464681,323.163642 L210.020273,278.849418 C215.607249,275.693004 223.973198,280.450437 226.843419,283.955259 C230.51415,288.447238 232.065396,295.378076 232.500907,298.654774 C231.600852,301.869255 226.279329,310.280828 203.04381,332.03976 Z M336.961197,222.340901 C330.254336,229.421057 320.457425,229.097535 315.019766,228.214071 L241.012025,153.55099 C238.860742,151.383116 235.815272,152.15001 231.875616,155.851674 C227.959493,159.933895 227.075691,163.060326 229.224209,165.230965 L304.3228,240.997339 C307.114215,245.439545 305.583706,254.112425 301.120761,258.513154 C296.989634,262.590361 286.898235,265.078992 282.244495,262.04701 C282.225139,262.03595 256.868753,236.065702 206.175338,184.136266 C202.973299,180.851273 200.568984,183.151043 197.288139,186.344787 C194.007294,189.542678 191.098381,192.444146 194.296272,195.720844 L270.655769,273.975849 C272.190425,279.260042 272.331447,287.675763 264.857259,293.034615 C261.485164,295.64353 253.795293,295.718189 248.482066,293.623591 C247.507352,288.48042 245.168039,280.168392 239.684755,273.457384 C234.599652,267.244101 224.620242,261.109626 214.184582,261.10133 C213.919128,254.597708 212.239302,246.820736 206.897041,240.491317 C199.086887,231.254348 188.236455,229.143159 179.970052,229.134864 C180.094484,221.411812 178.178238,211.324561 169.642233,202.883954 C162.184635,195.517606 153.030621,194.094938 144.847172,195.260447 C144.797399,188.611654 142.682063,181.062807 136.572474,173.729641 C121.595062,155.757576 100.483175,161.045917 90.6945595,168.594765 C90.4456964,168.78556 90.2134242,168.988798 89.9894474,169.20448 L53.6678766,204.372985 C37.8941032,188.10978 26.0896964,167.599313 20.8967529,147.001743 C11.5312046,109.962617 17.2094312,79.369045 38.2798411,53.4375091 C68.9771056,15.3448625 123.299775,5.49403112 167.44809,30.0111951 C171.409161,32.2136336 178.107727,37.0125439 183.292375,40.8657743 L120.9812,101.837236 C118.940522,103.620755 109.749178,112.335112 109.662076,124.479631 C109.624747,129.838484 111.4373,137.826989 120.292679,145.462939 C141.110078,163.397674 172.475125,161.265746 194.864509,140.377836 C203.777956,132.078252 224.645128,111.650738 234.943913,101.5386 L339.607441,207.948318 C340.271076,210.283484 341.702039,217.330457 336.961197,222.340901 Z M346.214757,191.004888 L240.953957,83.9937511 C239.411006,82.4259135 237.308112,81.5341541 235.105674,81.5134155 C232.865906,81.5134155 230.771308,82.3719932 229.220061,83.8983536 C228.879949,84.2301711 195.200474,117.39118 183.553681,128.237464 C167.456386,143.248057 145.407114,145.201633 131.122372,132.891204 C126.25295,128.693713 126.25295,125.649288 126.25295,124.649688 C126.25295,120.174299 130.375782,115.640843 131.918734,114.309426 C132.084642,114.172551 132.242256,114.027381 132.395721,113.878063 L201.66262,46.0877519 C215.553329,33.1302794 233.467325,24.9800126 254.76586,21.8775191 C281.979041,18.4639468 308.628132,25.7307496 329.785644,42.3382144 C351.548723,59.4268146 365.829317,84.8274425 368.973288,112.06551 C372.270724,139.560736 364.016764,167.881357 346.214757,191.004888 Z" id="Shape" fill="#FFCE00" fill-rule="nonzero"></path>
    </g>
</svg>